<svg height="512pt" viewBox="-14 0 512 512.00039" width="512pt" xmlns="http://www.w3.org/2000/svg"><path d="m331.089844 183.410156-6.085938 3.097656c-20.277344 10.328126-34.113281 29.046876-38.0625 50.578126-.910156 4.96875-1.160156 9.957031-1.160156 15h2.25c39.355469 0 71.371094-32.019532 71.371094-71.375v-2.25h-2.25c-9.195313 0-17.980469 1.765624-26.0625 4.949218zm0 0"/><path d="m255.542969 245.628906c-.15625-2.652344-.429688-5.296875-.882813-7.941406-.007812-.050781-.019531-.101562-.027344-.148438-3.816406-21.503906-17.523437-40.304687-37.65625-50.761718l-6.210937-3.226563c-8.179687-3.269531-17.089844-5.089843-26.425781-5.089843h-2.25v2.25c0 39.355468 32.019531 71.375 71.375 71.375h2.25c0-2.164063-.046875-4.3125-.171875-6.457032zm0 0"/><path d="m270.746094 196.753906c7.84375-12.71875 18.414062-23.582031 30.894531-31.773437-5.195313-21.6875-20.457031-40.480469-30.585937-51.042969-10.179688 10.617188-25.550782 29.554688-30.664063 51.394531 12.246094 8.148438 22.625 18.886719 30.355469 31.421875zm0 0"/><path d="m459.9375 103.117188c-35.15625-63.5625-113.578125-104.992188-195.167969-103.0507818-45.078125 1.0624998-82.789062 12.9296878-112.074219 35.2773438-54.992187 41.960938-82.125 90.492188-87.574218 156.921875l-60.496094 89.113281-.195312.289063c-5.503907 8.523437-5.90625 19.351562-1.054688 28.261719 4.851562 8.914062 14.171875 14.449218 24.320312 14.449218h25.558594v76.082032c0 29.949218 24.367188 54.316406 54.316406 54.316406h83.410157v57.222656h187.46875v-108.632812c3.355469-2.140626 7.613281-4.730469 9.933593-6.144532 5.0625-3.082031 6.578126-4.011718 7.828126-4.992187 39.867187-31.296875 69.84375-79.902344 82.25-133.355469 12.890624-55.546875 6.3125-110.863281-18.523438-155.757812zm-70.472656 77.59375c0 55.933593-45.503906 101.4375-101.4375 101.4375h-34.5625c-55.933594 0-101.4375-45.507813-101.4375-101.4375v-32.316407h32.3125c9.859375 0 19.390625 1.421875 28.410156 4.054688 12.164062-40.535157 47.089844-69.46875 48.796875-70.859375l9.503906-7.761719 9.507813 7.761719c1.699218 1.386718 36.542968 30.242187 48.757812 70.691406 8.847656-2.53125 18.1875-3.886719 27.835938-3.886719h32.3125zm0 0"/></svg>